<svg width="151" height="151" viewBox="0 0 151 151" fill="none" xmlns="http://www.w3.org/2000/svg">
<g filter="url(#filter0_b_363_11054)">
<circle cx="75.5006" cy="75.5" r="63.3866" transform="rotate(12.3771 75.5006 75.5)" fill="#FFF4F9"/>
</g>
<g clip-path="url(#clip0_363_11054)">
<path d="M66.8795 93.583C70.7745 93.5828 74.6262 92.7665 78.1865 91.1867C81.7467 89.6068 84.9364 87.2985 87.5499 84.4105C90.1634 81.5225 92.1428 78.1189 93.3604 74.4191C94.5781 70.7193 95.0069 66.8054 94.6194 62.9297C98.1088 64.4262 101.178 66.755 103.56 69.7122C105.941 72.6695 107.561 76.1652 108.279 79.8936C108.996 83.6219 108.79 87.4693 107.676 91.0993C106.563 94.7292 104.577 98.031 101.893 100.716C99.2083 103.401 95.9068 105.387 92.277 106.501C88.6473 107.615 84.7999 107.822 81.0714 107.105C77.343 106.388 73.847 104.768 70.8894 102.387C67.9317 100.007 65.6025 96.9374 64.1055 93.4482C65.0255 93.5381 65.9502 93.583 66.8795 93.583Z" fill="#FE7BB6"/>
<path fill-rule="evenodd" clip-rule="evenodd" d="M90.0104 65.2328C90.0104 78.0639 79.6088 88.4655 66.7777 88.4655C53.9466 88.4655 43.5449 78.0639 43.5449 65.2328C43.5449 52.4017 53.9466 42 66.7777 42C79.6088 42 90.0104 52.4017 90.0104 65.2328ZM62.0134 74.0689C63.0387 74.5545 64.2259 74.8513 65.575 74.9593V77.7384H68.651V74.8244C69.5144 74.6625 70.2789 74.4106 70.9444 74.0689C71.628 73.7091 72.1946 73.2774 72.6443 72.7737C73.112 72.2701 73.4627 71.6945 73.6966 71.0469C73.9484 70.3993 74.0743 69.7068 74.0743 68.9693C74.0743 67.6022 73.6606 66.46 72.8332 65.5426C72.0057 64.6072 70.7286 63.9776 69.0017 63.6538L68.3811 63.5459V59.0399C69.5324 59.2917 70.4857 59.8314 71.2412 60.6588L73.5617 58.0686C73.022 57.439 72.3475 56.9083 71.538 56.4766C70.7465 56.0449 69.7842 55.7571 68.651 55.6132V52.8071H65.575V55.6402C63.8302 55.874 62.4901 56.4676 61.5547 57.421C60.6193 58.3744 60.1516 59.6155 60.1516 61.1445C60.1516 62.5296 60.5654 63.7078 61.3928 64.6791C62.2203 65.6325 63.4974 66.2621 65.2242 66.5679L65.8448 66.6758V71.6405C65.1073 71.5326 64.4058 71.3077 63.7402 70.9659C63.0927 70.6242 62.4811 70.1475 61.9055 69.5359L59.558 72.0992C60.1876 72.9086 61.0061 73.5652 62.0134 74.0689ZM64.3878 62.3317C64.1 62.0259 63.9561 61.5852 63.9561 61.0096C63.9561 60.434 64.1 59.9753 64.3878 59.6335C64.6936 59.2917 65.1793 59.0669 65.8448 58.959V63.0332C65.1793 62.8534 64.6936 62.6195 64.3878 62.3317ZM69.8382 67.863C70.144 68.1688 70.2969 68.6275 70.2969 69.2391C70.2969 69.8687 70.135 70.3903 69.8112 70.8041C69.5054 71.1998 69.0287 71.4696 68.3811 71.6135V67.1615C69.0467 67.3234 69.5324 67.5572 69.8382 67.863Z" fill="#FE7BB6"/>
</g>
<defs>
<filter id="filter0_b_363_11054" x="2.983" y="2.983" width="145.034" height="145.034" filterUnits="userSpaceOnUse" color-interpolation-filters="sRGB">
<feFlood flood-opacity="0" result="BackgroundImageFix"/>
<feGaussianBlur in="BackgroundImageFix" stdDeviation="4.55831"/>
<feComposite in2="SourceAlpha" operator="in" result="effect1_backgroundBlur_363_11054"/>
<feBlend mode="normal" in="SourceGraphic" in2="effect1_backgroundBlur_363_11054" result="shape"/>
</filter>
<clipPath id="clip0_363_11054">
<rect width="66" height="66" fill="white" transform="translate(43.1719 42)"/>
</clipPath>
</defs>
</svg>
