<svg width="178" height="178" viewBox="0 0 178 178" fill="none" xmlns="http://www.w3.org/2000/svg">
<g filter="url(#filter0_b_363_11173)">
<circle cx="89.0005" cy="88.9343" r="72.1121" transform="rotate(-15 89.0005 88.9343)" fill="#FFF4F9"/>
</g>
<path d="M119.5 89.4336V112.767C119.5 114.535 118.798 116.231 117.547 117.481C116.297 118.731 114.601 119.434 112.833 119.434H66.1667C64.3986 119.434 62.7029 118.731 61.4526 117.481C60.2024 116.231 59.5 114.535 59.5 112.767V89.4336H119.5ZM102.833 59.4336C103.717 59.4336 104.565 59.7848 105.19 60.4099C105.815 61.035 106.167 61.8829 106.167 62.7669V66.1003H112.833C114.601 66.1003 116.297 66.8026 117.547 68.0529C118.798 69.3031 119.5 70.9988 119.5 72.7669V82.7669H59.5V72.7669C59.5 70.9988 60.2024 69.3031 61.4526 68.0529C62.7029 66.8026 64.3986 66.1003 66.1667 66.1003H72.8333V62.7669C72.8333 61.8829 73.1845 61.035 73.8096 60.4099C74.4348 59.7848 75.2826 59.4336 76.1667 59.4336C77.0507 59.4336 77.8986 59.7848 78.5237 60.4099C79.1488 61.035 79.5 61.8829 79.5 62.7669V66.1003H99.5V62.7669C99.5 61.8829 99.8512 61.035 100.476 60.4099C101.101 59.7848 101.949 59.4336 102.833 59.4336Z" fill="#FE7BB6"/>
<defs>
<filter id="filter0_b_363_11173" x="6.49953" y="6.43313" width="165.003" height="165.003" filterUnits="userSpaceOnUse" color-interpolation-filters="sRGB">
<feFlood flood-opacity="0" result="BackgroundImageFix"/>
<feGaussianBlur in="BackgroundImageFix" stdDeviation="5.18578"/>
<feComposite in2="SourceAlpha" operator="in" result="effect1_backgroundBlur_363_11173"/>
<feBlend mode="normal" in="SourceGraphic" in2="effect1_backgroundBlur_363_11173" result="shape"/>
</filter>
</defs>
</svg>
