<svg width="69" height="70" viewBox="0 0 69 70" fill="none" xmlns="http://www.w3.org/2000/svg">
<path d="M24.4496 68.6337C24.1231 68.6337 23.8476 68.5317 23.6232 68.3277C23.3987 68.144 23.2763 67.8991 23.2559 67.593C22.9702 65.5321 22.6845 63.9302 22.3988 62.7875C22.1335 61.6448 21.6948 60.7775 21.0826 60.1857C20.4909 59.594 19.5828 59.1348 18.3585 58.8084C17.1341 58.4819 15.4506 58.1146 13.308 57.7064C12.5938 57.5636 12.2367 57.1657 12.2367 56.5127C12.2367 56.1862 12.3388 55.9209 12.5428 55.7169C12.7673 55.5128 13.0326 55.3802 13.3386 55.319C15.4608 55.0537 17.1341 54.7782 18.3585 54.4925C19.5828 54.1864 20.4909 53.7273 21.0826 53.1151C21.6948 52.503 22.1437 51.6051 22.4294 50.4216C22.7151 49.238 22.9906 47.5954 23.2559 45.4936C23.3375 44.759 23.7354 44.3917 24.4496 44.3917C25.1434 44.3917 25.5311 44.7692 25.6127 45.5242C25.8576 47.5648 26.1127 49.1666 26.3779 50.3298C26.6636 51.4725 27.1126 52.3295 27.7247 52.9009C28.3573 53.4722 29.2858 53.9212 30.5101 54.2477C31.7345 54.5742 33.4077 54.9313 35.5299 55.319C36.2441 55.4618 36.6012 55.8597 36.6012 56.5127C36.6012 57.1861 36.2033 57.584 35.4075 57.7064C33.2853 58.0329 31.6222 58.3492 30.4183 58.6553C29.2348 58.9614 28.3369 59.4103 27.7247 60.0021C27.1126 60.6143 26.6636 61.5019 26.3779 62.6651C26.1127 63.8486 25.8576 65.4708 25.6127 67.5318C25.5311 68.2664 25.1434 68.6337 24.4496 68.6337ZM9.69622 41.6369C9.45135 41.6369 9.25749 41.5655 9.11465 41.4226C8.97181 41.2594 8.87998 41.0655 8.83917 40.8411C8.5739 39.3718 8.32903 38.2087 8.10456 37.3517C7.8801 36.4946 7.54341 35.8417 7.09448 35.3927C6.66596 34.9234 6.01297 34.5663 5.13552 34.3214C4.27848 34.0765 3.06434 33.8113 1.49309 33.5256C0.962541 33.4236 0.697266 33.1277 0.697266 32.6379C0.697266 32.1482 0.962541 31.8523 1.49309 31.7503C3.06434 31.485 4.28868 31.2299 5.16613 30.9851C6.04358 30.7402 6.69657 30.3933 7.12509 29.9444C7.57401 29.4955 7.90051 28.8425 8.10456 27.9854C8.32903 27.1284 8.5739 25.9448 8.83917 24.4348C8.9208 23.9043 9.20648 23.639 9.69622 23.639C10.186 23.639 10.4716 23.9043 10.5533 24.4348C10.8185 25.9244 11.0634 27.0978 11.2879 27.9548C11.5123 28.7915 11.8388 29.4342 12.2673 29.8832C12.6959 30.3321 13.3489 30.6892 14.2263 30.9545C15.1037 31.2197 16.3281 31.485 17.8993 31.7503C18.4503 31.8523 18.7258 32.1482 18.7258 32.6379C18.7258 33.1277 18.4503 33.4236 17.8993 33.5256C16.3281 33.7909 15.1037 34.0459 14.2263 34.2908C13.3489 34.5357 12.6857 34.8928 12.2367 35.3621C11.8082 35.811 11.4817 36.464 11.2573 37.3211C11.0532 38.1781 10.8185 39.3514 10.5533 40.8411C10.4716 41.3716 10.186 41.6369 9.69622 41.6369ZM26.5616 21.5882C26.1535 21.5882 25.9086 21.3637 25.827 20.9148C25.5821 19.6497 25.3577 18.66 25.1536 17.9458C24.9699 17.2316 24.6945 16.6806 24.3272 16.2929C23.9599 15.9052 23.4089 15.6093 22.6743 15.4053C21.9397 15.1808 20.899 14.9257 19.5522 14.64C19.1033 14.5584 18.8788 14.3135 18.8788 13.9054C18.8788 13.4973 19.1033 13.2524 19.5522 13.1708C20.899 12.9056 21.9295 12.6709 22.6437 12.4668C23.3783 12.2628 23.9292 11.9669 24.2966 11.5792C24.6639 11.1915 24.9495 10.6405 25.1536 9.92631C25.3577 9.1917 25.5821 8.19181 25.827 6.92666C25.9086 6.45732 26.1535 6.22266 26.5616 6.22266C26.9697 6.22266 27.2146 6.45732 27.2962 6.92666C27.5615 8.19181 27.7859 9.18149 27.9696 9.8957C28.1532 10.5895 28.4287 11.1302 28.796 11.518C29.1633 11.9057 29.7143 12.2118 30.4489 12.4362C31.2039 12.6403 32.2446 12.8851 33.571 13.1708C34.0199 13.2524 34.2444 13.4973 34.2444 13.9054C34.2444 14.334 34.0097 14.5788 33.5404 14.64C32.2344 14.9257 31.2141 15.1808 30.4795 15.4053C29.7449 15.6093 29.1939 15.9052 28.8266 16.2929C28.4593 16.6602 28.1737 17.2112 27.9696 17.9458C27.7859 18.66 27.5615 19.6497 27.2962 20.9148C27.2146 21.3637 26.9697 21.5882 26.5616 21.5882ZM52.7014 32.4849C52.2117 32.4849 51.926 32.2196 51.8444 31.6891C51.5791 30.1995 51.3342 29.0261 51.1098 28.1691C50.9057 27.312 50.5792 26.659 50.1303 26.2101C49.7018 25.7612 49.0488 25.4143 48.1713 25.1694C47.2939 24.9042 46.0695 24.6287 44.4983 24.343C43.9677 24.2614 43.7025 23.9757 43.7025 23.4859C43.7025 23.2411 43.7739 23.0472 43.9167 22.9044C44.08 22.7411 44.284 22.6391 44.5289 22.5983C46.0797 22.3534 47.2939 22.1086 48.1713 21.8637C49.0488 21.6188 49.7018 21.2719 50.1303 20.823C50.5588 20.3537 50.8853 19.6905 51.1098 18.8334C51.3342 17.956 51.5791 16.7724 51.8444 15.2828C51.926 14.7523 52.2117 14.487 52.7014 14.487C53.1911 14.487 53.4768 14.7523 53.5584 15.2828C53.8237 16.7724 54.0584 17.9458 54.2624 18.8028C54.4869 19.6395 54.8134 20.2924 55.2419 20.7618C55.6908 21.2107 56.354 21.5576 57.2315 21.8025C58.1293 22.0473 59.3537 22.3126 60.9045 22.5983C61.4555 22.7003 61.731 22.9962 61.731 23.4859C61.731 23.9757 61.4555 24.2614 60.9045 24.343C59.3333 24.6287 58.1089 24.8939 57.2315 25.1388C56.3744 25.3837 55.7317 25.7408 55.3031 26.2101C54.8746 26.659 54.5481 27.312 54.3237 28.1691C54.0992 29.0261 53.8441 30.1995 53.5584 31.6891C53.4768 32.2196 53.1911 32.4849 52.7014 32.4849ZM62.0983 67.8685L33.02 38.6679C32.2854 37.9128 31.9181 37.0048 31.9181 35.9437C31.9181 34.8826 32.2854 33.9643 33.02 33.1889C33.7342 32.4339 34.6423 32.0564 35.7442 32.0564C36.8461 32.0564 37.7542 32.4339 38.4684 33.1889L67.5772 62.4202C68.2914 63.1752 68.6485 64.0731 68.6485 65.1137C68.6689 66.1748 68.3118 67.0931 67.5772 67.8685C66.8426 68.6235 65.9243 69.001 64.8224 69.001C63.7409 69.001 62.8329 68.6235 62.0983 67.8685ZM44.7738 46.6873L46.5185 44.9732L37.3358 35.7906C37.0094 35.4641 36.6625 35.2703 36.2952 35.2091C35.9483 35.1479 35.6422 35.2499 35.3769 35.5152C35.0708 35.8212 34.9484 36.1477 35.0096 36.4946C35.0912 36.8415 35.2851 37.168 35.5912 37.4741L44.7738 46.6873Z" fill="#FE7BB6"/>
<path d="M28.0578 29.0026C27.9347 29.8048 27.442 30.2985 26.6414 30.2985C25.8409 30.2985 25.3482 29.8048 25.1635 29.0026L25.1206 28.758C23.3779 18.8187 23.3536 18.6805 12.847 16.5994C11.9848 16.476 11.4922 15.9823 11.4922 15.1184C11.4922 14.3162 11.9848 13.8225 12.7854 13.6991C23.5007 11.5394 23.1928 11.3542 25.1635 1.29586C25.3482 0.493662 25.8409 0 26.6414 0C27.442 0 27.9347 0.493662 28.0578 1.29586C30.0901 11.4776 29.8437 11.6628 40.4359 13.6991C41.2365 13.8225 41.7907 14.3162 41.7907 15.1184C41.7907 15.9823 41.2365 16.476 40.4359 16.5994C29.7821 18.6975 29.9053 18.8209 28.0578 29.0026Z" fill="#FE7BB6"/>
<path d="M25.8705 68.7935C25.7558 69.5404 25.2971 70 24.5517 70C23.8064 70 23.3477 69.5404 23.1757 68.7935C21.513 59.3139 21.5703 59.199 11.7086 57.2456C10.9059 57.1307 10.4473 56.6711 10.4473 55.8668C10.4473 55.1199 10.9059 54.6603 11.6513 54.5454C21.6276 52.5345 21.341 52.3622 23.1757 42.9975C23.3477 42.2506 23.8064 41.791 24.5517 41.791C25.2971 41.791 25.7558 42.2506 25.8705 42.9975C27.7625 52.4771 27.5332 52.6495 37.3948 54.5454C38.1402 54.6603 38.6562 55.1199 38.6562 55.8668C38.6562 56.6711 38.1402 57.1307 37.3948 57.2456C27.4758 59.199 27.5905 59.3139 25.8705 68.7935Z" fill="#FE7BB6"/>
</svg>
