<svg width="68" height="70" viewBox="0 0 68 70" fill="none" xmlns="http://www.w3.org/2000/svg">
<path d="M35.3051 9.66594e-05C46.1883 0.239763 53.922 6.94457 58.6407 17.9926C59.7447 20.5821 60.6974 22.9788 63.4099 24.3759C65.5787 25.4924 66.5033 27.9416 67.0413 30.3675C67.7923 33.7287 67.7867 37.0957 67.1478 40.4978C66.3352 44.8352 63.9647 47.7345 59.9353 48.927C58.1195 49.4648 57.2005 50.4702 56.4495 52.2122C53.4289 59.1801 48.6822 64.5053 42.0581 67.9191C36.1401 70.9646 30.3622 70.6548 24.7357 67.0832C18.969 63.4239 14.85 58.2506 12.0927 51.8965C11.4539 50.4293 10.6188 49.6519 9.13935 49.1901C3.56883 47.4364 1.25993 44.2857 0.906865 38.1771C0.73874 35.2602 0.682699 32.3433 1.4897 29.4907C2.11736 27.2753 3.13731 25.2001 5.09316 24.1304C7.1779 22.9905 8.09137 21.2485 8.92639 19.1091C13.8412 6.57045 22.6285 -0.0291309 35.3051 9.66594e-05ZM49.3715 50.8385C45.1796 52.6798 40.601 52.978 36.6109 55.0882C34.1955 56.3684 32.0939 56.1988 30.6088 54.2172C29.1349 52.2531 29.219 50.2364 30.7377 48.36C32.2732 46.4602 34.6158 46.2323 36.7622 47.8515C37.6476 48.5178 38.3537 48.9329 39.5194 48.6172C43.4255 47.5475 47.1298 45.9984 50.638 43.9408C52.3753 42.9237 52.8965 35.5116 51.3722 34.3074C51.0976 34.0911 50.6828 34.0151 50.3242 33.9917C43.6609 33.5475 38.2585 30.1512 33.3661 25.8197C31.6344 24.2882 30.9731 24.6506 29.7738 26.34C26.8484 30.4435 23.0712 33.4656 18.0948 34.1905C16.1669 34.4711 15.9204 35.459 15.8139 37.0431C15.1638 46.5596 21.5357 58.1045 29.7514 62.3016C32.3181 63.6168 34.868 63.9208 37.5635 62.7341C42.9435 60.3667 46.7431 56.2865 49.3827 50.8385H49.3715Z" fill="#FE7BB6"/>
</svg>
