<svg width="59" height="67" viewBox="0 0 59 67" fill="none" xmlns="http://www.w3.org/2000/svg">
<path d="M3.08008 13.3641C3.08008 12.2211 3.72281 11.1818 4.7638 10.7096C9.07623 8.75336 20.7813 3.82973 29.3432 3.83203C37.8963 3.83433 49.5876 8.75411 53.8967 10.7095C54.9375 11.1817 55.5801 12.2209 55.5801 13.3639V27.2149C55.579 35.2701 53.0438 43.1208 48.3334 49.6552C43.753 56.0093 37.3498 61.1601 29.9733 63.7817C29.5657 63.9265 29.1207 63.9266 28.713 63.7819C21.3328 61.1613 14.9104 56.01 10.3281 49.6543C5.61599 43.1183 3.0802 35.2652 3.08008 27.2077V13.3641Z" fill="#FE7BB6" stroke="#FE7BB6" stroke-width="5.83333" stroke-linejoin="round"/>
<path d="M16.2051 31.5397L26.4134 41.748L43.9134 24.248" stroke="white" stroke-width="5.83333" stroke-linecap="round" stroke-linejoin="round"/>
</svg>
