<svg width="177" height="178" viewBox="0 0 177 178" fill="none" xmlns="http://www.w3.org/2000/svg">
<g filter="url(#filter0_b_363_11402)">
<circle cx="88.5005" cy="89.071" r="72.1121" transform="rotate(-15 88.5005 89.071)" fill="#FFF4F9"/>
</g>
<path d="M89.0815 65.8203C35.1397 65.8203 45.5027 112.32 69.7692 112.32C74.632 112.32 79.2109 109.815 82.1298 105.556L85.2656 100.98C87.1742 98.1959 90.9901 98.1959 92.8986 100.98L96.0345 105.556C98.9522 109.815 103.531 112.32 108.394 112.32C131.533 112.32 143.814 65.8203 89.0815 65.8203ZM72.4249 95.4108C67.4207 95.4108 64.1666 92.3035 62.6651 90.4399C62.0277 89.6491 62.0277 88.4915 62.6651 87.6995C64.1666 85.8347 67.4195 82.7286 72.4249 82.7286C77.4303 82.7286 80.6831 85.8359 82.1846 87.6995C82.822 88.4903 82.822 89.6479 82.1846 90.4399C80.6831 92.3047 77.4291 95.4108 72.4249 95.4108ZM105.575 95.4108C100.571 95.4108 97.3166 92.3035 95.8151 90.4399C95.1777 89.6491 95.1777 88.4915 95.8151 87.6995C97.3166 85.8347 100.569 82.7286 105.575 82.7286C110.58 82.7286 113.833 85.8359 115.335 87.6995C115.972 88.4903 115.972 89.6479 115.335 90.4399C113.833 92.3047 110.579 95.4108 105.575 95.4108Z" fill="#FE7BB6"/>
<defs>
<filter id="filter0_b_363_11402" x="5.99953" y="6.56985" width="165.003" height="165.003" filterUnits="userSpaceOnUse" color-interpolation-filters="sRGB">
<feFlood flood-opacity="0" result="BackgroundImageFix"/>
<feGaussianBlur in="BackgroundImageFix" stdDeviation="5.18578"/>
<feComposite in2="SourceAlpha" operator="in" result="effect1_backgroundBlur_363_11402"/>
<feBlend mode="normal" in="SourceGraphic" in2="effect1_backgroundBlur_363_11402" result="shape"/>
</filter>
</defs>
</svg>
