<svg width="177" height="178" viewBox="0 0 177 178" fill="none" xmlns="http://www.w3.org/2000/svg">
<g filter="url(#filter0_b_363_11304)">
<circle cx="88.5005" cy="89.2526" r="72.1121" transform="rotate(-15 88.5005 89.2526)" fill="#FFF4F9"/>
</g>
<path d="M110.693 65.4902H67.3043C61.3383 65.4902 56.457 70.3715 56.457 76.3375V79.0493C56.457 80.6763 57.5418 81.7611 59.1688 81.7611H118.829C120.456 81.7611 121.54 80.6763 121.54 79.0493V76.3375C121.54 70.3715 116.659 65.4902 110.693 65.4902Z" fill="#FE7BB6"/>
<path d="M118.829 87.1836H59.1688C57.5418 87.1836 56.457 88.2683 56.457 89.8954V103.454C56.457 109.42 61.3383 114.302 67.3043 114.302H110.693C116.659 114.302 121.54 109.42 121.54 103.454V89.8954C121.54 88.2683 120.456 87.1836 118.829 87.1836ZM86.2869 106.166H70.0161C68.389 106.166 67.3043 105.082 67.3043 103.454C67.3043 101.827 68.389 100.743 70.0161 100.743H86.2869C87.914 100.743 88.9987 101.827 88.9987 103.454C88.9987 105.082 87.914 106.166 86.2869 106.166ZM107.981 98.0308H102.558C100.931 98.0308 99.8459 96.9461 99.8459 95.319C99.8459 93.6919 100.931 92.6072 102.558 92.6072H107.981C109.608 92.6072 110.693 93.6919 110.693 95.319C110.693 96.9461 109.608 98.0308 107.981 98.0308Z" fill="#FE7BB6"/>
<defs>
<filter id="filter0_b_363_11304" x="5.99953" y="6.75149" width="165.003" height="165.003" filterUnits="userSpaceOnUse" color-interpolation-filters="sRGB">
<feFlood flood-opacity="0" result="BackgroundImageFix"/>
<feGaussianBlur in="BackgroundImageFix" stdDeviation="5.18578"/>
<feComposite in2="SourceAlpha" operator="in" result="effect1_backgroundBlur_363_11304"/>
<feBlend mode="normal" in="SourceGraphic" in2="effect1_backgroundBlur_363_11304" result="shape"/>
</filter>
</defs>
</svg>
