<svg width="178" height="178" viewBox="0 0 178 178" fill="none" xmlns="http://www.w3.org/2000/svg">
<g filter="url(#filter0_b_363_11390)">
<circle cx="88.9361" cy="89.071" r="72.1121" transform="rotate(-15 88.9361 89.071)" fill="#FFF4F9"/>
</g>
<path d="M87.1429 69.0398C87.5392 69.0398 87.7831 68.7959 87.8441 68.3996C88.7587 63.3691 88.6977 63.3081 93.9721 62.2715C94.3685 62.2106 94.6429 61.9667 94.6429 61.5398C94.6429 61.1435 94.3685 60.8996 93.9721 60.8386C88.7282 59.8325 88.8502 59.741 87.8441 54.7106C87.7831 54.3142 87.5392 54.0703 87.1429 54.0703C86.7465 54.0703 86.5026 54.3142 86.4112 54.7106C85.4355 59.6801 85.588 59.7715 80.2831 60.8386C79.8868 60.8996 79.6429 61.1435 79.6429 61.5398C79.6429 61.9667 79.8868 62.2106 80.3136 62.2715C85.5575 63.3081 85.527 63.3691 86.4112 68.3996C86.5026 68.7959 86.7465 69.0398 87.1429 69.0398ZM72.3563 90.3813C72.966 90.3813 73.4234 89.9545 73.5148 89.3447C74.5819 81.2654 74.8258 81.2349 83.2404 79.6496C83.8197 79.5581 84.277 79.1313 84.277 78.491C84.277 77.8813 83.8197 77.424 83.2099 77.3325C74.8563 76.174 74.5514 75.9301 73.5148 67.6984C73.4234 67.0581 72.966 66.6313 72.3563 66.6313C71.716 66.6313 71.2587 67.0581 71.1977 67.7288C70.1916 75.7776 69.8258 75.7776 61.4721 77.3325C60.8624 77.4545 60.4355 77.8813 60.4355 78.491C60.4355 79.1618 60.8624 79.5581 61.5941 79.6496C69.8563 80.9606 70.1916 81.2045 71.1977 89.2837C71.2587 89.9545 71.716 90.3813 72.3563 90.3813ZM93.4843 124.07C94.3685 124.07 95.0392 123.43 95.1612 122.515C97.3563 105.991 99.7038 103.4 116.045 101.601C116.99 101.479 117.661 100.778 117.661 99.8935C117.661 99.0093 116.99 98.3081 116.045 98.1862C99.7648 96.2959 97.4477 93.8569 95.1612 77.2715C95.0087 76.3569 94.3685 75.7167 93.4843 75.7167C92.6002 75.7167 91.9294 76.3569 91.8075 77.2715C89.6124 93.7959 87.2648 96.3874 70.9234 98.1862C69.9477 98.3081 69.3075 99.0093 69.3075 99.8935C69.3075 100.778 69.9477 101.479 70.9234 101.601C87.1429 103.765 89.399 105.93 91.8075 122.515C91.9599 123.43 92.6002 124.07 93.4843 124.07Z" fill="#FE7BB6"/>
<defs>
<filter id="filter0_b_363_11390" x="6.43508" y="6.56985" width="165.003" height="165.003" filterUnits="userSpaceOnUse" color-interpolation-filters="sRGB">
<feFlood flood-opacity="0" result="BackgroundImageFix"/>
<feGaussianBlur in="BackgroundImageFix" stdDeviation="5.18578"/>
<feComposite in2="SourceAlpha" operator="in" result="effect1_backgroundBlur_363_11390"/>
<feBlend mode="normal" in="SourceGraphic" in2="effect1_backgroundBlur_363_11390" result="shape"/>
</filter>
</defs>
</svg>
